#!OML:ASF X:\für Bonn\!DataBase\2005_08_10_Bjorn_Final\c3d\bjorn.ASF
:FULLY-SPECIFIED
:DEGREES
175
root 2.53433 18.1647 3.23312 -202.476 -9.02198 182.015
lowerback 7.25628 2.8342 0.405645
upperback 14.2936 1.70238 -3.50735
thorax 11.4692 0.109597 -4.19885
lowerneck 2.7355 1.03518 -8.72232
upperneck 7.97652 0.370745 9.31325
head 1.84759 -0.0265391 4.24177
rclavicle -4.01545e-014 1.43125e-014
rhumerus -35.7343 9.14187 -80.8364
rradius 35.5995
rwrist -0.121186
rhand -18.8174 24.4368
rfingers 7.12502
rthumb 7.48145 -5.41091
lclavicle -4.01545e-014 1.43125e-014
lhumerus 16.3709 -10.7668 31.4617
lradius 100.644
lwrist 2.59862
lhand -52.1651 -17.5839
lfingers 7.12502
lthumb -24.6657 10.8465
rfemur 2.18883 -6.11263 18.3341
rtibia 43.1188
rfoot -21.2411 13.1375
rtoes -2.84709
lfemur -22.7291 6.00659 -18.463
ltibia 62.159
lfoot -13.6457 7.29148
ltoes -18.7778
176
root 2.50286 18.2078 3.3175 -201.624 -9.07749 181.924
lowerback 7.25715 2.77016 0.369028
upperback 14.0574 1.67799 -3.5457
thorax 11.1827 0.119323 -4.20512
lowerneck 2.39803 0.932089 -8.6975
upperneck 8.29015 0.244496 9.18422
head 2.00803 -0.084368 4.20054
rclavicle 1.43125e-014 4.77083e-015
rhumerus -36.3197 8.84656 -81.4161
rradius 35.885
rwrist -0.44931
rhand -18.5364 24.5876
rfingers 7.12502
rthumb 7.75259 -5.25026
lclavicle 1.43125e-014 4.77083e-015
lhumerus 15.4252 -11.6973 31.5226
lradius 100.39
lwrist 2.90129
lhand -51.7552 -17.3471
lfingers 7.12502
lthumb -24.2728 11.1364
rfemur 1.12349 -5.879 18.2912
rtibia 42.8667
rfoot -20.8554 12.8679
rtoes -2.24392
lfemur -21.9671 5.53079 -18.1987
ltibia 63.5319
lfoot -13.712 7.50424
ltoes -19.4654
177
root 2.47003 18.251 3.4007 -200.746 -9.09937 181.846
lowerback 7.20981 2.71098 0.352578
upperback 13.8163 1.66351 -3.58682
thorax 10.9226 0.137508 -4.22535
lowerneck 2.08806 0.833965 -8.69578
upperneck 8.53621 0.12439 9.12535
head 2.14286 -0.138452 4.18385
rclavicle -3.97569e-015 -6.52014e-014
rhumerus -36.9109 8.4599 -81.9944
rradius 36.1457
rwrist -0.604946
rhand -18.1732 24.6264
rfingers 7.12502
rthumb 8.10322 -5.19821
lclavicle -3.97569e-015 -6.52014e-014
lhumerus 14.451 -12.7562 31.5912
lradius 99.9622
lwrist 2.47961
lhand -51.7102 -16.3752
lfingers 7.12502
lthumb -24.2296 12.114
rfemur 0.0200201 -5.6513 18.2542
rtibia 42.6353
rfoot -20.4928 12.6002
rtoes -1.53528
lfemur -21.2099 5.03232 -17.9063
ltibia 64.7222
lfoot -13.7819 7.44193
ltoes -20.4604
178
root 2.43599 18.2912 3.48239 -199.821 -9.10124 181.738
lowerback 7.10172 2.65374 0.312704
upperback 13.5655 1.65637 -3.63548
thorax 10.6881 0.158932 -4.24004
lowerneck 1.87282 0.741874 -8.75055
upperneck 8.62441 0.0178669 9.1083
head 2.21417 -0.186141 4.18787
rclavicle 1.23246e-014 8.42847e-014
rhumerus -37.5175 8.03091 -82.5756
rradius 36.4365
rwrist -0.77572
rhand -17.854 24.5744
rfingers 7.12502
rthumb 8.41126 -5.23811
lclavicle 1.23246e-014 8.42847e-014
lhumerus 13.4288 -13.9522 31.715
lradius 99.5161
lwrist 2.59716
lhand -51.6646 -16.1359
lfingers 7.12502
lthumb -24.1859 12.3592
rfemur -1.13254 -5.38886 18.1905
rtibia 42.417
rfoot -20.1389 12.324
rtoes -0.955895
lfemur -20.4434 4.51248 -17.6453
ltibia 65.7165
lfoot -13.7812 7.18007
ltoes -21.5127
179
root 2.40084 18.3318 3.56256 -198.834 -9.07241 181.61
lowerback 6.90113 2.6009 0.261385
upperback 13.3045 1.66219 -3.6977
thorax 10.4986 0.18877 -4.26211
lowerneck 1.74078 0.667694 -8.82504
upperneck 8.57061 -0.0623909 9.1539
head 2.22719 -0.219856 4.21334
rclavicle -5.1684e-015 -4.77083e-014
rhumerus -38.1095 7.50415 -83.1487
rradius 36.7262
rwrist -0.845546
rhand -17.65 24.3827
rfingers 7.12502
rthumb 8.60807 -5.42183
lclavicle -5.1684e-015 -4.77083e-014
lhumerus 12.3328 -15.2766 31.8563
lradius 99.0601
lwrist 3.2106
lhand -51.6681 -16.5371
lfingers 7.12502
lthumb -24.1893 11.9574
rfemur -2.34231 -5.09843 18.1044
rtibia 42.172
rfoot -19.7473 12.0855
rtoes -0.618396
lfemur -19.6222 3.99359 -17.3913
ltibia 66.5093
lfoot -13.7394 6.59598
ltoes -21.7686
180
root 2.36494 18.3779 3.64319 -197.808 -9.06005 181.416
lowerback 6.67011 2.55016 0.149745
upperback 13.0397 1.67128 -3.78598
thorax 10.3225 0.215226 -4.27865
lowerneck 1.57121 0.59369 -8.88601
upperneck 8.53942 -0.138736 9.17654
head 2.25299 -0.25079 4.22969
rclavicle 1.15295e-014 1.74931e-014
rhumerus -38.7006 6.95184 -83.7259
rradius 36.9909
rwrist -0.782877
rhand -17.6558 24.1515
rfingers 7.12502
rthumb 8.60249 -5.65324
lclavicle 1.15295e-014 1.74931e-014
lhumerus 11.189 -16.5686 32.0189
lradius 98.5801
lwrist 3.82275
lhand -51.5884 -17.0271
lfingers 7.12502
lthumb -24.1129 11.4777
rfemur -3.55523 -4.79748 17.9382
rtibia 41.88
rfoot -19.3391 11.7979
rtoes -0.677443
lfemur -18.7611 3.46967 -17.223
ltibia 67.1248
lfoot -13.5273 5.86016
ltoes -21.3668
181
root 2.32888 18.432 3.72218 -196.733 -9.04708 181.196
lowerback 6.3858 2.49187 -0.00282226
upperback 12.7478 1.67801 -3.87823
thorax 10.1455 0.239443 -4.2749
lowerneck 1.41034 0.529332 -8.93905
upperneck 8.51578 -0.203884 9.19547
head 2.27863 -0.276701 4.24365
rclavicle -1.39149e-014 -6.99722e-014
rhumerus -39.3403 6.46664 -84.3284
rradius 37.2659
rwrist -0.692048
rhand -17.8341 23.9012
rfingers 7.12502
rthumb 8.43044 -5.91058
lclavicle -1.39149e-014 -6.99722e-014
lhumerus 9.9689 -17.8215 32.2905
lradius 98.049
lwrist 4.3238
lhand -51.4369 -17.5424
lfingers 7.12502
lthumb -23.9676 10.9815
rfemur -4.78147 -4.58035 17.7156
rtibia 41.5495
rfoot -18.9098 11.5826
rtoes -0.804131
lfemur -17.9039 2.93671 -17.0855
ltibia 67.5867
lfoot -13.0911 5.03903
ltoes -20.3434
182
root 2.29211 18.4842 3.80036 -195.664 -9.00016 181.03
lowerback 6.08201 2.43114 -0.0911103
upperback 12.471 1.67814 -3.96697
thorax 10.0017 0.265308 -4.30458
lowerneck 1.17584 0.468202 -8.9642
upperneck 8.51929 -0.25856 9.20069
head 2.3236 -0.29484 4.24909
rclavicle 1.82882e-014 1.74931e-014
rhumerus -39.9166 5.89889 -84.9024
rradius 37.515
rwrist -0.52372
rhand -18.0188 23.6833
rfingers 7.12502
rthumb 8.25218 -6.13557
lclavicle 1.82882e-014 1.74931e-014
lhumerus 8.7906 -18.9678 32.6253
lradius 97.4141
lwrist 4.70715
lhand -51.2984 -17.9687
lfingers 7.12502
lthumb -23.8348 10.5726
rfemur -6.00348 -4.43085 17.5244
rtibia 41.2055
rfoot -18.4571 11.4467
rtoes -0.90096
lfemur -17.0071 2.42914 -16.8882
ltibia 67.8941
lfoot -12.4297 4.19361
ltoes -18.8899
183
root 2.25467 18.5269 3.87737 -194.618 -8.93019 180.954
lowerback 5.77592 2.35127 -0.0895325
upperback 12.1946 1.65191 -4.03473
thorax 9.86263 0.285788 -4.36286
lowerneck 0.947987 0.41384 -8.97231
upperneck 8.50829 -0.300358 9.16913
head 2.36229 -0.306827 4.24031
rclavicle 7.95139e-016 2.70347e-014
rhumerus -40.4102 5.31114 -85.4488
rradius 37.6877
rwrist -0.339734
rhand -18.1734 23.432
rfingers 7.12502
rthumb 8.10297 -6.39261
lclavicle 7.95139e-016 2.70347e-014
lhumerus 7.56749 -20.0355 33.0873
lradius 96.6907
lwrist 4.92159
lhand -51.0931 -18.1407
lfingers 7.12502
lthumb -23.6379 10.4262
rfemur -7.24314 -4.32418 17.4223
rtibia 40.8933
rfoot -18.0146 11.3217
rtoes -1.13352
lfemur -16.0519 1.93217 -16.601
ltibia 68.0239
lfoot -11.7638 3.37115
ltoes -17.5043
184
root 2.21769 18.5647 3.95381 -193.57 -8.85362 180.906
lowerback 5.45432 2.25561 -0.0982718
upperback 11.9172 1.60377 -4.07635
thorax 9.72886 0.293072 -4.38772
lowerneck 0.678675 0.379987 -8.9985
upperneck 8.52926 -0.311965 9.12688
head 2.41455 -0.303928 4.23202
rclavicle 3.33958e-014 -3.02153e-014
rhumerus -40.8116 4.59717 -85.8686
rradius 37.7799
rwrist -0.0305251
rhand -18.217 23.2057
rfingers 7.12502
rthumb 8.0609 -6.62055
lclavicle 3.33958e-014 -3.02153e-014
lhumerus 6.23696 -21.0259 33.71
lradius 95.8879
lwrist 4.7895
lhand -50.9075 -17.797
lfingers 7.12502
lthumb -23.4598 10.7928
rfemur -8.51252 -4.15013 17.3667
rtibia 40.6386
rfoot -17.6382 11.1241
rtoes -1.4665
lfemur -15.0713 1.44899 -16.3008
ltibia 67.967
lfoot -11.258 2.72416
ltoes -17.3312
185
root 2.1806 18.6 4.02958 -192.481 -8.78709 180.848
lowerback 5.09543 2.15047 -0.140571
upperback 11.6196 1.54754 -4.11046
thorax 9.59258 0.294402 -4.38509
lowerneck 0.423664 0.348566 -9.04062
upperneck 8.5501 -0.32027 9.07324
head 2.46424 -0.300721 4.22292
rclavicle 1.27222e-014 -1.27222e-014
rhumerus -41.1122 3.74358 -86.1909
rradius 37.7454
rwrist 0.353978
rhand -18.1557 22.9939
rfingers 7.12502
rthumb 8.12006 -6.83013
lclavicle 1.27222e-014 -1.27222e-014
lhumerus 4.80841 -21.9758 34.4645
lradius 94.9772
lwrist 4.38994
lhand -50.8134 -17.3553
lfingers 7.12502
lthumb -23.3696 11.2459
rfemur -9.85381 -3.83162 17.3247
rtibia 40.46
rfoot -17.3158 10.7751
rtoes -1.87504
lfemur -14.1352 0.977362 -16.0419
ltibia 67.7282
lfoot -10.7988 2.38751
ltoes -18.0319
186
root 2.14307 18.632 4.10427 -191.36 -8.71041 180.788
lowerback 4.6909 2.03577 -0.195574
upperback 11.3185 1.48005 -4.13571
thorax 9.47871 0.289061 -4.36641
lowerneck 0.136891 0.330438 -9.10882
upperneck 8.58736 -0.308028 9.02362
head 2.52217 -0.287355 4.22002
rclavicle 1.23246e-014 -3.02153e-014
rhumerus -41.3334 2.80516 -86.4331
rradius 37.6024
rwrist 0.686646
rhand -18.0232 22.9067
rfingers 7.12502
rthumb 8.24795 -6.91227
lclavicle 1.23246e-014 -3.02153e-014
lhumerus 3.30793 -22.8206 35.3667
lradius 93.9779
lwrist 3.90353
lhand -50.7428 -16.901
lfingers 7.12502
lthumb -23.3019 11.7089
rfemur -11.2642 -3.436 17.2844
rtibia 40.3507
rfoot -17.0518 10.3189
rtoes -2.44701
lfemur -13.243 0.57499 -15.8115
ltibia 67.2913
lfoot -10.2501 2.36213
ltoes -19.8938
187
root 2.10491 18.6562 4.17802 -190.245 -8.62191 180.737
lowerback 4.26636 1.92027 -0.242857
upperback 11.0345 1.40746 -4.14737
thorax 9.39699 0.279855 -4.33917
lowerneck -0.136311 0.311327 -9.20234
upperneck 8.57514 -0.291287 8.96901
head 2.56297 -0.271909 4.21956
rclavicle 1.23246e-014 1.59028e-015
rhumerus -41.5195 1.80849 -86.6056
rradius 37.4131
rwrist 0.95253
rhand -17.9114 22.9341
rfingers 7.12502
rthumb 8.35583 -6.88067
lclavicle 1.23246e-014 1.59028e-015
lhumerus 1.76343 -23.5554 36.4288
lradius 92.9587
lwrist 3.64367
lhand -50.5899 -16.7783
lfingers 7.12502
lthumb -23.1552 11.85
rfemur -12.7061 -2.97665 17.2406
rtibia 40.3139
rfoot -16.8387 9.81201
rtoes -3.15642
lfemur -12.3412 0.231275 -15.5992
ltibia 66.6445
lfoot -9.76053 2.55638
ltoes -20.1284
188
root 2.06685 18.6762 4.25041 -189.104 -8.53165 180.684
lowerback 3.8 1.79486 -0.313255
upperback 10.7469 1.32312 -4.14817
thorax 9.335 0.262731 -4.28831
lowerneck -0.358711 0.300576 -9.28558
upperneck 8.49566 -0.257664 8.86734
head 2.57421 -0.24924 4.20257
rclavicle -2.54444e-014 -3.02153e-014
rhumerus -41.7313 0.741041 -86.7166
rradius 37.2693
rwrist 1.15667
rhand -17.7483 23.0124
rfingers 7.12502
rthumb 8.5132 -6.79595
lclavicle -2.54444e-014 -3.02153e-014
lhumerus 0.152249 -24.1722 37.6501
lradius 91.9424
lwrist 3.85317
lhand -50.2352 -17.1249
lfingers 7.12502
lthumb -22.8148 11.5458
rfemur -14.2158 -2.5341 17.1739
rtibia 40.3532
rfoot -16.6399 9.32732
rtoes -3.81025
lfemur -11.469 -0.0482308 -15.4163
ltibia 65.7945
lfoot -9.32744 2.93841
ltoes -20.8931
189
root 2.02873 18.6923 4.32232 -188.023 -8.44083 180.572
lowerback 3.38702 1.68404 -0.427051
upperback 10.499 1.24548 -4.17486
thorax 9.28827 0.240634 -4.24393
lowerneck -0.534086 0.285399 -9.30649
upperneck 8.30922 -0.224091 8.73297
head 2.5462 -0.224862 4.16414
rclavicle -3.4191e-014 -1.11319e-014
rhumerus -41.9398 -0.406806 -86.7946
rradius 37.1526
rwrist 1.23488
rhand -17.516 23.1423
rfingers 7.12502
rthumb 8.73739 -6.65681
lclavicle -3.4191e-014 -1.11319e-014
lhumerus -1.40295 -24.6546 38.8911
lradius 90.9039
lwrist 4.30364
lhand -49.701 -17.6191
lfingers 7.12502
lthumb -22.302 11.1139
rfemur -15.688 -2.04468 17.0173
rtibia 40.474
rfoot -16.4764 8.80827
rtoes -4.47313
lfemur -10.502 -0.265115 -15.3237
ltibia 64.7443
lfoot -9.06163 3.56336
ltoes -22.592
